<?xml version="1.0" standalone="no"?>
<!DOCTYPE svg PUBLIC "-//W3C//DTD SVG 20010904//EN"
 "http://www.w3.org/TR/2001/REC-SVG-20010904/DTD/svg10.dtd">
<svg version="1.0" xmlns="http://www.w3.org/2000/svg"
 width="1024.000000pt" height="1024.000000pt" viewBox="0 0 1024.000000 1024.000000"
 preserveAspectRatio="xMidYMid meet">
<metadata>
Created by potrace 1.14, written by Peter Selinger 2001-2017
</metadata>
<g transform="translate(0.000000,1024.000000) scale(0.100000,-0.100000)"
fill="#000000" stroke="none">
<path d="M6661 9303 c-240 -129 -412 -441 -412 -748 -1 -182 62 -360 180 -516
52 -69 180 -187 230 -214 l30 -15 3 -672 3 -673 -40 -40 c-22 -22 -53 -61 -67
-88 -147 -263 -120 -527 75 -722 227 -227 572 -233 809 -15 75 69 117 136 154
245 73 218 -6 481 -186 621 l-25 19 3 666 3 667 55 36 c67 45 182 162 230 233
189 284 190 637 4 941 -132 213 -337 357 -405 282 -19 -21 -20 -34 -16 -339
l3 -318 -50 -37 c-123 -90 -226 -86 -374 12 l-38 25 0 281 c-1 297 -7 362 -36
383 -28 21 -77 15 -133 -14z m9 -403 c0 -229 0 -231 26 -282 39 -77 127 -160
199 -188 50 -20 79 -24 175 -24 106 -1 119 1 171 26 67 34 149 110 178 166 29
56 33 118 23 332 -4 102 -7 187 -5 189 6 8 55 -44 98 -104 64 -91 104 -177
130 -283 33 -140 38 -195 21 -287 -29 -167 -120 -319 -261 -438 -120 -101
-194 -127 -358 -127 -110 0 -185 18 -287 67 -108 53 -253 198 -303 303 -64
136 -71 164 -71 300 -1 143 17 217 84 350 38 73 154 230 171 230 5 0 9 -104 9
-230z m599 -2023 l1 -338 -22 7 c-120 38 -209 43 -298 18 -30 -9 -65 -18 -78
-21 l-23 -6 4 597 c2 327 6 598 9 602 4 3 16 1 27 -5 11 -6 69 -14 128 -17 96
-4 115 -2 173 18 l65 24 6 -271 c4 -148 7 -422 8 -608z m-114 -452 c55 -9 187
-80 232 -124 67 -66 103 -138 112 -227 12 -99 1 -165 -39 -245 -84 -168 -303
-270 -480 -224 -139 36 -238 113 -295 228 -45 91 -55 174 -31 264 48 190 170
303 361 333 50 8 65 7 140 -5z"/>
<path d="M7542 8870 c12 -30 29 -82 39 -115 10 -33 18 -52 18 -43 1 24 -48
173 -64 195 -8 10 -5 -6 7 -37z"/>
<path d="M7577 8423 c-8 -27 -35 -89 -61 -138 -37 -74 -65 -110 -153 -201 -66
-68 -129 -121 -162 -139 -29 -16 -49 -31 -44 -32 19 -7 103 39 128 70 15 17
71 77 125 133 77 80 105 117 134 179 33 69 61 164 51 173 -2 2 -10 -18 -18
-45z"/>
<path d="M6865 8305 c-24 -23 -25 -30 -25 -145 0 -115 1 -122 25 -145 29 -30
56 -32 78 -7 14 15 17 42 17 154 0 118 -2 137 -18 151 -26 24 -49 21 -77 -8z"/>
<path d="M7029 8301 c-23 -18 -24 -24 -24 -144 0 -110 2 -127 19 -146 14 -15
29 -21 50 -19 l31 3 6 135 c7 146 0 183 -37 188 -11 2 -32 -6 -45 -17z"/>
<path d="M7174 8285 c-20 -50 -20 -243 2 -273 19 -28 55 -28 80 -1 14 16 19
38 20 105 1 46 5 101 9 122 8 47 -20 82 -66 82 -25 0 -33 -6 -45 -35z"/>
<path d="M7020 6301 c-59 -12 -131 -54 -171 -99 -51 -59 -72 -125 -67 -215 8
-162 118 -269 278 -271 116 -2 239 74 283 174 30 65 29 169 -2 237 -26 59
-101 134 -156 157 -45 19 -119 27 -165 17z m138 -168 c46 -34 65 -69 65 -116
0 -120 -125 -194 -228 -135 -49 28 -90 102 -81 146 24 109 160 168 244 105z"/>
<path d="M7391 6215 c0 -5 6 -21 14 -35 8 -14 14 -20 14 -15 0 6 -6 21 -14 35
-8 14 -14 21 -14 15z"/>
<path d="M7438 6005 c-4 -33 -10 -73 -13 -90 -3 -18 1 -12 10 15 9 25 14 65
13 90 -3 45 -3 45 -10 -15z"/>
<path d="M7325 5772 c-22 -20 -56 -50 -75 -66 l-35 -28 42 23 c42 22 136 109
118 109 -6 0 -28 -17 -50 -38z"/>
<path d="M3505 8939 c-257 -19 -627 -158 -835 -312 -249 -184 -453 -448 -563
-728 -35 -88 -94 -324 -107 -429 -13 -112 -14 -2321 0 -2442 15 -126 66 -347
106 -452 50 -130 113 -242 220 -391 113 -157 151 -200 274 -306 124 -107 216
-168 358 -239 243 -122 534 -190 816 -190 l82 0 38 -78 c21 -42 66 -126 101
-187 63 -112 211 -382 302 -555 28 -52 101 -189 163 -305 287 -535 440 -795
470 -795 25 0 178 252 385 635 50 94 108 199 127 235 164 300 407 751 506 940
30 58 56 106 56 107 1 1 82 6 181 12 362 21 670 118 942 298 239 157 477 464
577 743 31 86 89 321 105 429 8 53 12 440 12 1320 0 1220 -3 1354 -32 1491
-14 65 -49 170 -57 170 -4 -1 -25 -24 -46 -51 -21 -28 -61 -68 -88 -90 l-49
-38 0 -576 0 -576 65 -74 c73 -84 134 -184 162 -265 15 -42 19 -82 18 -170 -1
-148 -22 -241 -79 -358 -37 -74 -64 -111 -138 -188 l-92 -96 -6 -242 c-6 -227
-8 -248 -37 -356 -75 -281 -180 -472 -360 -653 -148 -150 -315 -249 -542 -321
-213 -68 -194 -67 -1580 -67 -734 1 -1286 5 -1346 10 -191 19 -365 68 -511
145 -167 88 -405 301 -505 452 -60 92 -133 227 -163 304 -39 99 -83 267 -95
360 -7 58 -10 446 -8 1225 l3 1140 23 105 c66 298 181 514 379 713 189 190
448 319 718 357 43 6 569 10 1371 10 l1301 0 2 57 c2 62 34 221 50 252 6 11
11 22 11 25 0 9 -2571 4 -2685 -5z m2097 -5479 l50 0 -70 -132 c-38 -73 -102
-194 -142 -268 -39 -74 -131 -247 -202 -385 -205 -393 -233 -446 -275 -518
-36 -61 -41 -66 -46 -45 -8 27 -250 483 -517 973 -159 290 -200 367 -200 371
0 2 33 4 73 4 l72 0 149 -283 c82 -155 169 -316 192 -357 23 -41 90 -167 148
-280 58 -113 106 -197 106 -187 0 30 337 689 513 1002 62 111 67 117 84 110 8
-3 37 -5 65 -5z"/>
<path d="M7064 8933 l-92 -4 -6 -31 c-3 -17 -6 -63 -6 -103 l0 -72 31 -7 c17
-3 62 -6 100 -6 l69 0 0 115 c0 63 -1 114 -2 113 -2 -1 -44 -4 -94 -5z"/>
<path d="M8243 8313 c-21 -26 -58 -65 -82 -87 -41 -39 -43 -43 -39 -88 9 -89
104 -169 183 -154 78 15 145 90 145 162 0 37 -6 51 -45 94 -25 28 -45 57 -45
65 0 21 -37 55 -59 55 -11 0 -36 -20 -58 -47z"/>
<path d="M6163 8203 c3 -5 1 -34 -4 -66 -9 -55 -8 -62 36 -164 26 -59 51 -110
56 -114 6 -3 10 -9 10 -13 -3 -20 0 -36 7 -35 18 3 46 -3 35 -8 -31 -12 -7
-49 101 -158 63 -63 118 -115 123 -115 28 1 32 18 26 105 l-6 89 -102 101
c-100 99 -230 277 -257 353 -7 17 -16 32 -21 32 -4 0 -6 -3 -4 -7z"/>
<path d="M3826 8009 c-63 -15 -155 -70 -190 -113 -18 -23 -59 -86 -91 -141
-32 -55 -95 -156 -139 -226 l-81 -125 -32 34 -32 34 -145 -4 c-156 -3 -173 -9
-219 -70 -24 -32 -26 -112 -4 -154 20 -38 73 -87 117 -109 19 -10 37 -19 39
-21 2 -2 -18 -27 -43 -56 -109 -123 -171 -343 -146 -516 22 -157 85 -279 196
-381 130 -119 341 -194 496 -176 l58 7 0 -210 c0 -169 -3 -211 -14 -215 -31
-12 -36 16 -36 195 0 163 -2 178 -19 187 -10 6 -21 8 -23 5 -3 -2 -16 -7 -28
-9 -12 -2 -25 -7 -28 -9 -13 -13 -21 -104 -22 -232 0 -144 -8 -174 -39 -155
-10 6 -13 42 -12 142 0 74 -2 155 -5 181 -5 45 -7 46 -49 57 -24 6 -49 11 -54
11 -7 0 -11 -60 -11 -180 0 -172 -1 -180 -20 -180 -34 0 -40 32 -40 209 l0
170 -75 39 -75 39 0 -201 c0 -226 6 -252 73 -319 51 -51 104 -60 322 -56 169
4 183 6 222 28 24 14 55 42 70 64 28 40 28 41 31 240 l4 199 868 -4 868 -3 7
-185 c7 -203 16 -242 68 -286 58 -49 89 -55 282 -57 241 -2 290 15 339 116 23
48 26 66 32 258 4 131 3 208 -3 212 -5 3 -26 -5 -47 -19 -20 -14 -53 -32 -72
-40 l-34 -14 0 -200 0 -200 -24 0 c-33 0 -36 17 -36 212 l0 167 -52 -6 c-29
-3 -54 -7 -55 -8 -2 -1 -6 -87 -10 -191 -8 -180 -9 -189 -28 -189 -19 0 -20 8
-25 190 l-5 190 -55 0 -55 0 -2 -175 -2 -175 -23 0 -23 0 -3 204 -2 203 27 -5
c44 -8 233 12 303 33 137 41 294 167 357 285 71 136 100 331 68 460 -31 121
-112 265 -193 340 l-25 23 61 31 c127 64 155 175 68 260 -41 40 -84 50 -218
51 -94 0 -98 -1 -131 -30 -19 -16 -37 -30 -40 -30 -6 0 -181 277 -246 389 -74
127 -127 173 -240 207 -38 11 -184 14 -831 13 -434 -1 -802 -5 -824 -10z
m1631 -162 c41 -22 116 -115 153 -187 40 -80 197 -338 231 -381 16 -20 29 -42
29 -49 0 -9 -288 -11 -1229 -8 -1126 3 -1228 4 -1220 19 4 9 41 65 82 125 40
60 109 172 152 248 44 76 101 162 126 190 l47 51 218 5 c121 3 480 5 799 5
532 0 583 -2 612 -18z m-113 -928 c30 -24 32 -32 10 -53 -14 -14 -91 -16 -696
-16 -620 0 -683 1 -700 17 -21 18 -24 59 -5 66 6 3 316 6 688 6 670 1 677 1
703 -20z m-1817 -40 c141 -68 199 -219 135 -351 -53 -108 -133 -167 -237 -176
-81 -6 -141 15 -203 72 -59 54 -84 107 -89 186 -15 217 199 363 394 269z
m2495 -1 c102 -44 163 -147 156 -265 -10 -166 -135 -275 -299 -260 -109 10
-205 87 -244 197 -62 176 105 376 295 353 25 -2 66 -14 92 -25z m-602 -148
c11 -6 20 -19 20 -29 0 -47 15 -46 -794 -43 -752 2 -761 2 -781 23 l-20 20 28
25 28 24 750 -5 c501 -3 756 -8 769 -15z m-387 -190 l387 0 12 -25 c10 -21 9
-29 -5 -42 -16 -16 -78 -17 -778 -15 -573 1 -765 4 -776 13 -20 18 -12 51 17
67 20 11 95 12 390 8 201 -3 539 -6 753 -6z m299 -207 c26 -24 22 -40 -14 -60
-30 -16 -87 -17 -677 -18 -594 0 -646 1 -672 17 -33 20 -38 52 -11 67 11 7
250 10 686 11 609 0 671 -1 688 -17z"/>
<path d="M3958 7712 c-46 -50 -163 -193 -276 -338 l-32 -41 58 -6 c31 -3 64
-8 72 -11 10 -3 40 27 95 97 87 111 216 258 279 319 l40 38 -91 0 -91 0 -54
-58z"/>
<path d="M4089 7483 c-36 -43 -40 -55 -9 -26 19 18 32 35 29 38 -3 3 -12 -3
-20 -12z"/>
<path d="M3365 6789 c-80 -24 -126 -110 -104 -193 6 -21 27 -56 48 -78 32 -35
45 -41 89 -46 44 -4 58 -1 91 21 44 29 81 96 81 146 0 64 -57 131 -128 151
-42 11 -37 11 -77 -1z"/>
<path d="M5828 6765 c-85 -57 -99 -170 -32 -245 63 -69 138 -76 206 -20 51 42
75 107 59 160 -33 110 -148 163 -233 105z"/>
<path d="M6480 7506 c0 -2 8 -10 18 -17 15 -13 16 -12 3 4 -13 16 -21 21 -21
13z"/>
<path d="M6536 7403 c9 -38 14 -42 14 -10 0 14 -5 29 -10 32 -7 4 -8 -3 -4
-22z"/>
<path d="M2590 7211 c0 -33 5 -63 10 -66 6 -3 10 -30 11 -58 1 -47 2 -49 10
-22 8 27 7 52 -6 160 -2 17 -4 33 -4 38 -1 4 -5 7 -11 7 -6 0 -10 -26 -10 -59z"/>
<path d="M2591 6858 c-20 -31 -26 -133 -10 -170 9 -22 9 -32 0 -41 -6 -6 -11
-21 -11 -34 0 -16 -6 -23 -20 -23 -16 0 -20 -7 -20 -33 0 -18 -6 -56 -14 -83
-8 -27 -19 -92 -25 -144 -14 -121 -22 -1103 -10 -1234 26 -292 172 -600 383
-812 181 -180 384 -286 652 -341 83 -17 176 -18 1419 -18 1243 0 1336 1 1419
18 264 54 470 160 626 323 119 124 184 226 260 409 64 154 106 356 115 553 l7
144 -29 -15 c-44 -23 -174 -47 -255 -47 -244 1 -454 110 -600 313 -29 40 -58
78 -65 85 -7 7 -13 18 -13 24 0 6 -3 9 -6 5 -3 -3 -10 -40 -15 -82 -11 -99
-43 -167 -110 -233 -55 -55 -107 -84 -169 -95 -19 -4 -125 -8 -235 -9 -197 -2
-201 -1 -258 25 -77 35 -125 73 -160 127 l-29 45 7 -35 c4 -19 12 -41 19 -49
6 -8 9 -24 8 -37 -7 -52 56 -123 153 -172 102 -51 330 -66 533 -33 50 8 52 7
52 -14 0 -13 -7 -28 -15 -35 -8 -7 -15 -23 -15 -36 0 -13 -6 -24 -12 -24 -7 0
-20 -22 -29 -49 l-16 -49 38 -15 c47 -19 63 -52 46 -97 -8 -20 -20 -33 -37
-36 -14 -3 -35 -7 -46 -10 -12 -2 -37 7 -57 20 -22 16 -34 19 -30 10 3 -8 9
-14 14 -14 5 0 9 -6 9 -14 0 -8 5 -18 12 -22 7 -5 8 -3 3 7 -8 12 -6 12 8 0
11 -8 17 -28 17 -52 0 -32 3 -39 20 -39 13 0 20 -7 20 -20 0 -13 7 -20 20 -20
13 0 20 -7 20 -20 0 -17 -7 -20 -40 -20 l-40 0 0 -40 0 -40 -80 0 -80 0 0 80
c0 75 1 80 21 80 21 0 21 3 16 68 -6 68 -15 123 -22 130 -2 2 0 15 5 28 8 19
5 27 -17 44 -14 11 -20 20 -13 20 7 0 3 9 -10 20 -13 11 -31 20 -42 20 -10 0
-18 5 -18 10 0 6 -9 10 -20 10 -11 0 -20 -7 -20 -15 0 -8 -9 -15 -20 -15 -11
0 -20 6 -20 14 0 8 -9 18 -20 21 -22 7 -26 20 -10 30 25 15 4 24 -77 30 -107
8 -153 22 -153 47 0 14 -8 18 -35 18 -32 0 -35 3 -35 28 0 15 -6 61 -14 102
-9 41 -15 90 -16 108 0 23 -9 41 -34 65 -19 17 -36 41 -38 52 -4 22 -35 32
-89 27 -33 -4 -39 -8 -39 -28 0 -13 -9 -28 -21 -35 l-21 -11 22 -15 c17 -12
19 -18 9 -29 -10 -12 3 -28 66 -89 l78 -74 -36 -40 c-49 -54 -53 -78 -27 -156
l22 -65 63 0 64 0 11 -40 c6 -22 9 -83 8 -137 l-3 -96 -71 2 -71 2 -22 -67
-22 -67 27 -38 c15 -22 31 -39 35 -39 33 0 -24 -99 -100 -174 l-50 -49 -48 52
-48 53 -59 -31 c-32 -17 -69 -31 -82 -31 -23 0 -24 -2 -24 -80 l0 -81 -107 6
c-166 9 -157 4 -151 80 l6 64 -33 11 c-17 6 -54 24 -80 41 l-48 30 -53 -52
-54 -53 -30 29 c-16 15 -49 56 -72 89 -24 33 -56 73 -73 90 -25 24 -26 28 -9
22 15 -4 34 4 67 29 l47 36 -21 57 c-12 31 -28 63 -37 70 -9 6 -43 12 -76 12
-65 0 -83 6 -86 30 -4 29 0 51 9 45 5 -3 11 27 13 70 2 62 0 74 -12 72 -25 -4
-25 49 -1 63 12 6 21 7 21 3 0 -4 31 -9 70 -11 l69 -2 11 42 c6 24 17 55 26
70 15 27 14 29 -32 78 -25 27 -50 47 -55 44 -15 -9 -41 24 -37 48 2 18 9 22
29 20 33 -3 141 90 119 103 -7 5 -11 4 -8 -1 3 -5 0 -15 -8 -22 -8 -7 -14 -8
-14 -2 0 6 -27 10 -65 10 -37 0 -65 -4 -65 -10 0 -5 -9 -10 -21 -10 -16 0 -19
-4 -15 -17 4 -9 1 -20 -6 -25 -10 -8 -10 -11 0 -15 19 -7 14 -38 -9 -59 -12
-10 -30 -38 -40 -61 -10 -24 -25 -43 -34 -43 -8 0 -15 -5 -15 -11 0 -13 -25
-39 -38 -39 -6 0 -13 -13 -17 -30 l-6 -30 -60 7 -59 6 -1 -34 c-1 -19 -2 -43
-3 -54 -1 -11 3 -23 8 -27 5 -3 -9 -5 -33 -2 -24 2 -40 0 -36 -6 3 -5 37 -12
75 -16 38 -3 67 -10 64 -15 -2 -4 -12 -5 -21 -2 -13 5 -13 3 2 -20 11 -18 15
-36 11 -53 -7 -28 -46 -75 -46 -56 0 7 -10 9 -29 6 -24 -5 -35 -1 -57 21 -24
24 -26 32 -21 80 3 33 1 57 -6 65 -9 10 -9 14 1 17 19 7 14 31 -8 38 -11 3
-20 13 -20 21 0 8 -9 14 -20 14 -11 0 -20 -7 -20 -15 0 -9 -9 -15 -22 -15 -12
0 -19 -3 -15 -6 7 -8 -17 -34 -32 -34 -6 0 -11 -12 -11 -27 0 -21 -3 -24 -12
-15 -7 7 -20 12 -29 12 -10 0 -20 6 -22 13 -4 9 -6 9 -6 0 -1 -7 12 -19 28
-27 31 -17 41 -34 41 -74 0 -34 -9 -48 -38 -56 -12 -4 -20 -11 -18 -15 3 -4
-7 -8 -20 -9 -32 -2 -80 22 -94 48 -6 11 -17 20 -25 20 -17 0 -30 22 -40 68
-6 28 -4 32 14 32 12 0 21 5 21 10 0 6 -9 10 -20 10 -13 0 -20 7 -20 19 0 11
-9 23 -20 26 -11 3 -20 13 -20 21 0 10 -12 14 -40 14 -33 0 -40 -3 -40 -20 0
-17 -7 -20 -45 -20 -38 0 -47 -4 -56 -24 -7 -14 -17 -22 -25 -19 -8 3 -14 0
-14 -6 0 -6 6 -11 13 -11 7 0 8 -3 2 -8 -5 -4 -12 -16 -13 -27 -4 -18 -2 -17
15 3 57 71 179 2 147 -83 -8 -20 -55 -45 -85 -45 -13 0 -36 12 -53 28 l-30 27
28 -35 c16 -19 35 -39 42 -43 8 -4 14 -13 14 -20 0 -7 16 -27 35 -45 35 -31
65 -42 65 -22 0 6 33 10 80 10 l80 0 0 38 c0 45 8 56 28 40 19 -16 81 -38 110
-38 15 0 22 -6 22 -20 0 -13 7 -20 20 -20 13 0 20 -7 20 -20 0 -13 7 -20 20
-20 13 0 20 -7 20 -20 0 -18 7 -20 80 -20 73 0 80 2 80 20 0 19 7 20 95 20 88
0 95 -1 95 -20 0 -16 -7 -20 -35 -20 -34 0 -35 -1 -35 -40 l0 -40 40 0 40 0 0
-80 0 -80 -100 0 c-93 0 -100 -1 -100 -20 0 -19 -7 -20 -120 -20 -113 0 -120
1 -120 20 0 17 -7 20 -40 20 -33 0 -40 -3 -40 -20 0 -17 -7 -20 -40 -20 -34 0
-40 3 -40 21 0 21 -3 21 -60 16 -33 -4 -87 -4 -120 0 -51 5 -60 9 -60 25 0 28
-22 17 -33 -17 -8 -23 -6 -31 8 -41 17 -13 17 -14 1 -20 -27 -10 -67 12 -60
33 5 14 4 15 -4 4 -8 -12 -23 -3 -76 44 -128 112 -214 237 -287 414 -70 172
-77 234 -89 761 -9 396 -22 732 -37 930 -3 41 -4 137 -3 213 1 75 -2 137 -7
137 -4 0 -15 -10 -22 -22z m3929 -1427 c12 -53 63 -141 80 -141 5 0 10 -7 10
-15 0 -9 10 -19 22 -24 12 -4 17 -10 11 -14 -6 -4 -16 0 -23 8 -7 8 -20 15
-29 15 -12 0 -13 2 -3 9 10 6 9 11 -4 22 -13 11 -18 11 -21 2 -11 -33 -44 -4
-42 35 0 11 2 12 6 5 2 -7 10 -13 16 -13 8 0 7 4 -1 12 -14 14 -91 11 -109 -4
-6 -5 4 21 23 59 18 37 34 74 34 81 0 31 19 7 30 -37z m-3327 -438 c-7 -2 -19
-2 -25 0 -7 3 -2 5 12 5 14 0 19 -2 13 -5z m3287 -3 c0 -5 -5 -10 -11 -10 -5
0 -7 5 -4 10 3 6 8 10 11 10 2 0 4 -4 4 -10z m50 -2 c0 -7 20 -22 44 -32 32
-14 46 -28 55 -53 16 -43 5 -143 -15 -143 -8 0 -14 -9 -14 -20 0 -18 -7 -20
-60 -20 -53 0 -60 2 -60 20 0 11 5 20 12 20 6 0 8 3 5 7 -8 7 22 44 32 39 3
-2 12 3 20 12 13 14 11 14 -25 8 -87 -17 -139 4 -150 59 -4 21 -2 41 5 49 6 7
8 16 4 19 -3 4 4 7 18 6 36 -1 127 26 109 33 -12 5 -12 7 3 7 9 1 17 -5 17
-11z m529 -35 c0 -21 -4 -47 -9 -58 -7 -14 -9 -4 -8 38 1 31 5 57 10 57 4 0 8
-17 7 -37z m-1269 14 c30 -15 45 -54 36 -90 -12 -49 -98 -74 -144 -41 l-22 15
21 -35 c12 -20 25 -36 30 -36 5 0 9 -13 9 -30 0 -23 -4 -30 -20 -30 -13 0 -20
-7 -20 -20 0 -17 7 -20 40 -20 33 0 40 -3 40 -20 0 -18 -7 -20 -80 -20 l-80 0
0 34 c0 30 -4 34 -31 40 l-32 6 27 21 c19 15 25 27 21 40 -4 11 -2 19 4 19 6
0 11 15 11 34 0 19 5 38 10 41 6 3 10 14 10 23 0 9 16 32 35 50 39 35 89 42
135 19z m-2375 -107 c3 -5 1 -10 -4 -10 -6 0 -11 5 -11 10 0 6 2 10 4 10 3 0
8 -4 11 -10z m20 -30 c4 -6 4 -18 1 -27 -5 -12 -9 -13 -21 -3 -8 7 -15 19 -15
26 0 16 26 19 35 4z m2485 -290 c0 -13 -7 -20 -20 -20 -13 0 -20 -7 -20 -20 0
-18 -7 -20 -60 -20 l-60 0 0 40 0 40 80 0 c73 0 80 -2 80 -20z m915 -48 c-21
-20 -33 -30 -27 -21 7 9 8 20 4 24 -4 5 -2 5 5 1 7 -3 20 4 30 18 10 13 20 22
23 20 2 -3 -13 -21 -35 -42z m-2615 18 c0 -5 -2 -10 -4 -10 -3 0 -8 5 -11 10
-3 6 -1 10 4 10 6 0 11 -4 11 -10z m-375 -350 c-3 -5 -14 -10 -23 -9 -14 0
-13 2 3 9 27 11 27 11 20 0z m149 -2 c-3 -4 -31 -8 -62 -7 -41 0 -51 3 -37 9
25 11 106 10 99 -2z m1859 5 c-40 -2 -106 -2 -145 0 -40 1 -8 3 72 3 80 0 112
-2 73 -3z m-825 -40 c-10 -2 -28 -2 -40 0 -13 2 -5 4 17 4 22 1 32 -1 23 -4z"/>
<path d="M5631 4904 c0 -11 3 -14 6 -6 3 7 2 16 -1 19 -3 4 -6 -2 -5 -13z"/>
<path d="M2881 6093 c0 -25 1 -26 9 -8 12 27 12 35 0 35 -5 0 -10 -12 -9 -27z"/>
<path d="M2900 6087 c0 -8 7 -17 15 -21 8 -3 15 -2 15 3 0 5 -7 14 -15 21 -12
10 -15 10 -15 -3z"/>
<path d="M2911 6014 c0 -11 3 -14 6 -6 3 7 2 16 -1 19 -3 4 -6 -2 -5 -13z"/>
<path d="M3918 5750 c5 -165 -16 -235 -93 -318 -35 -38 -74 -68 -107 -83 -51
-23 -62 -24 -283 -24 -219 0 -233 1 -290 24 -65 26 -166 117 -185 166 -15 40
-30 20 -30 -41 0 -66 25 -111 101 -177 65 -57 134 -82 274 -100 122 -15 412
-9 436 9 8 5 32 16 54 23 75 25 133 71 161 130 29 60 56 195 47 231 -4 16 -3
21 5 16 7 -4 12 -1 12 8 0 8 -7 19 -16 24 -11 6 -14 20 -12 48 3 37 5 39 43
45 77 13 845 18 980 6 72 -6 186 -11 255 -11 l125 -1 3 68 3 67 -723 0 c-398
0 -732 3 -743 6 -19 5 -20 1 -17 -116z"/>
<path d="M4785 5600 c-15 -7 -10 -9 23 -9 26 -1 41 3 37 9 -7 12 -32 12 -60 0z"/>
<path d="M4900 5509 c0 -65 2 -71 22 -77 13 -3 47 -19 77 -34 l55 -29 18 23
c24 31 25 56 1 37 -11 -9 -14 -10 -9 -2 5 9 2 11 -8 7 -8 -3 -18 -15 -21 -25
-5 -16 -10 -18 -21 -8 -8 6 -14 21 -15 33 0 20 -1 21 -9 1 -6 -15 -9 -16 -9
-4 -1 8 -12 26 -26 39 -29 28 -31 37 -8 62 9 10 13 21 9 25 -4 4 -11 1 -17 -7
-7 -12 -10 -11 -15 8 -12 44 -24 21 -24 -49z"/>
<path d="M4432 5486 c-9 -21 -6 -30 20 -65 17 -23 33 -39 36 -37 3 3 -1 14 -9
23 -8 10 -16 34 -18 53 -4 46 -15 56 -29 26z"/>
<path d="M4663 5232 c-120 -43 -211 -157 -228 -287 -4 -37 -1 -68 15 -119 53
-169 161 -256 321 -257 53 -1 79 5 133 30 45 20 65 34 60 42 -4 7 -3 9 3 6 6
-4 19 3 29 14 14 15 15 20 4 17 -8 -2 -18 -7 -22 -13 -4 -6 -8 -2 -8 8 0 16
12 22 34 18 5 -1 6 5 3 14 -4 8 -3 15 2 15 23 0 41 301 20 326 -9 11 -7 14 10
14 11 0 21 5 21 10 0 6 -5 10 -11 10 -5 0 -8 3 -5 8 6 11 -22 47 -31 38 -4 -4
-2 -16 5 -26 16 -26 15 -31 -3 -24 -8 4 -15 15 -15 25 0 10 -4 19 -10 19 -5 0
-10 5 -10 11 0 5 4 8 9 4 5 -3 12 -1 15 4 8 13 -51 60 -104 83 -66 29 -172 33
-237 10z m-83 -412 c0 -11 -4 -20 -10 -20 -5 0 -10 9 -10 20 0 11 5 20 10 20
6 0 10 -9 10 -20z m-25 -60 c5 -30 11 -40 26 -40 12 0 19 -7 19 -20 0 -13 -5
-18 -15 -14 -8 4 -22 1 -30 -6 -15 -13 -17 -10 -19 25 -1 11 -6 19 -12 18 -7
-1 -19 6 -29 17 -16 18 -16 18 6 13 19 -5 21 -3 17 20 -4 21 -1 27 13 27 12 0
19 -11 24 -40z"/>
<path d="M3800 5033 c0 -4 5 -15 10 -23 8 -13 10 -13 10 2 0 9 -4 20 -10 23
-5 3 -10 3 -10 -2z"/>
<path d="M6070 4990 c0 -5 5 -10 10 -10 6 0 10 5 10 10 0 6 -4 10 -10 10 -5 0
-10 -4 -10 -10z"/>
<path d="M3092 4900 c0 -14 2 -19 5 -12 2 6 2 18 0 25 -3 6 -5 1 -5 -13z"/>
<path d="M5102 4895 c0 -16 2 -22 5 -12 2 9 2 23 0 30 -3 6 -5 -1 -5 -18z"/>
<path d="M5932 2429 c-46 -14 -119 -91 -132 -141 -13 -47 -11 -132 4 -168 26
-66 103 -120 170 -120 71 0 195 80 197 128 0 9 2 47 4 84 2 49 0 66 -9 61 -8
-4 -8 -2 1 7 29 32 -51 129 -124 149 -45 13 -66 13 -111 0z"/>
<path d="M4415 1150 c-214 -4 -446 -11 -515 -14 -335 -18 -629 -37 -665 -42
-47 -8 -115 -33 -115 -44 0 -15 40 -42 83 -55 83 -25 570 -52 1337 -75 524
-16 1735 19 2110 61 147 17 205 49 163 90 -28 28 -121 38 -493 54 -190 8 -381
17 -425 19 -158 10 -1098 14 -1480 6z"/>
</g>
</svg>
